<?xml version="1.0" encoding="UTF-8"?>
<svg id="Layer_5" data-name="Layer 5" xmlns="http://www.w3.org/2000/svg" viewBox="0 0 120 120">
  <defs>
    <style>
      .cls-1 {
        fill: #f9f8f6;
      }

      .cls-2 {
        fill: #959b7f;
      }

      .cls-3, .cls-4, .cls-5, .cls-6, .cls-7 {
        fill: #b2b69d;
      }

      .cls-8 {
        fill: #959e83;
      }

      .cls-9 {
        fill: #d2e1c2;
      }

      .cls-4 {
        opacity: .76;
      }

      .cls-5 {
        opacity: .81;
      }

      .cls-6 {
        opacity: .66;
      }

      .cls-7 {
        opacity: .62;
      }

      .cls-10 {
        fill: #c9c7ae;
      }

      .cls-11 {
        fill: #adaf99;
      }

      .cls-12 {
        fill: #2f4100;
        opacity: .94;
      }

      .cls-13 {
        fill: #fff;
      }

      .cls-14 {
        fill: #fff57a;
      }

      .cls-15 {
        fill: #924f4b;
      }

      .cls-16 {
        fill: #a04702;
      }

      .cls-17 {
        fill: #491b20;
      }

      .cls-18 {
        fill: #e1dcbe;
      }
    </style>
  </defs>
  <path class="cls-16" d="M96.98,20.74l2.76.89c3.47,1.11,4.38,2.09,4.38,2.09,1.46.14,5.6,4.37,5.6,4.37,1.75.82,5.09,7.42,5.09,7.42,1.72,2.8,2.79,10.03,2.79,10.03.86,1.44.03,9.14.03,9.14.16,2.82-1.82,8.4-1.82,8.4.17.99-3.12,7.65-3.12,7.65-2.51,5.35-4.15,6.97-4.15,6.97l-5.15,6.83-5.63,6.15-7.21,7.15-7.53,6.7-8.88,6.4c-4.79,3.47-10.19,5.73-10.19,5.73-5.95,3.1-9.62,3.06-9.62,3.06-4.27,1.18-10.43-1.43-10.43-1.43l-7.58-3.97-8.25-6.32-7.1-6.71-4.84-5.44-5.02-6.35-5.13-7.95-2.51-4.85-1.7-4.71-1.21-5.02c-1.21-5.02.06-9.06-.12-11.73-.17-2.66,3.52-12.22,3.52-12.22,0,0,.97-3.89,7.59-11.5,6.62-7.6,17.39-10.21,17.39-10.21l.92-.11"/>
  <path class="cls-12" d="M60.5,16.47s-20.39,4.17-23.95,4.41c-3.56.24-8.28-.91-9.25-.36,0,0,.24,1.78,2.27,2.73l2.73,1.07,6.06,1.16,2.53.31-3.26,2.43s-2.92,2.73-3.22,3.31c0,0-1.2,1.53-1.58,2.72s-.02,2.75-.02,2.75l4.29-2.22,3.83-1.93,4.15-1.75,3.28-1.06s4.04-1.08,4.41-.93c0,0,.28,1.98.81,2.68,0,0,1.09,1.68,1.48,2.03s1.6,1.34,1.6,1.34l1.71,1.17,2.98,1.63,2.2,1.16s.36-1.14,0-1.88c0,0-.07.02-.09-1.81,0,0,.06-2,.41-2.25,0,0,1.48-2.77,1.89-2.96l3-3.44,3.45.37,5.51,1.05,5.27,1.62,1.87.87,2.66,1.51,2.84,2.2,2.2,1.97s.33.35.47-1.21c.15-1.55-.84-3.56-.84-3.56,0,0-1.32-1.92-2.28-2.8,0,0-1.1-1.41-1.91-2.05,0,0-1.31-1.8-2.58-2.28,0,0-.77-.48-1.73-1.31l-.74-.69,5.89.1,4.62.69,5.13,1.35s1.61.42,2.03.33-.48-1.16-.48-1.16l-1.51-1.55s-2.08-1.48-3.7-2.04c0,0-2.62-1.3-5.85-2.07,0,0-4.12-1.15-8.2-1.67-4.08-.52-8.47-.11-8.47-.11l-4.83.81.44-5.22s-1.19-10.41-2.59-10.77c-1.4-.36-1.82-1.64-8.92-.96-7.1.69-2.19,4.63-2.19,4.63,0,0,3.02,1.96,3.39,2.83,0,0,2.82,4.75,2.59,5.5l.19,3.31Z"/>
  <path class="cls-14" d="M77.9,46.26s-2.95.19-3.34,3.34c0,0-.45,1.91,1.75,2.37,0,0,2.27-.18,3.34-2.65,0,0,.99-2.74-1.75-3.06Z"/>
  <path class="cls-14" d="M30.87,49.54s-2.95.19-3.34,3.34c0,0-.45,1.91,1.75,2.37,0,0,2.27-.18,3.34-2.65,0,0,.99-2.74-1.75-3.06Z"/>
  <path class="cls-14" d="M75.03,72.93s-2.95.19-3.34,3.34c0,0-.45,1.91,1.75,2.37,0,0,2.27-.18,3.34-2.65,0,0,.99-2.74-1.75-3.06Z"/>
  <path class="cls-14" d="M48.01,80.21s-2.95.19-3.34,3.34c0,0-.45,1.91,1.75,2.37,0,0,2.27-.18,3.34-2.65,0,0,.99-2.74-1.75-3.06Z"/>
  <path class="cls-14" d="M34.9,64.92s-2.95.19-3.34,3.34c0,0-.45,1.91,1.75,2.37,0,0,2.27-.18,3.34-2.65,0,0,.99-2.74-1.75-3.06Z"/>
  <path class="cls-14" d="M61.59,58.98s-2.95.19-3.34,3.34c0,0-.45,1.91,1.75,2.37,0,0,2.27-.18,3.34-2.65,0,0,.99-2.74-1.75-3.06Z"/>
  <path class="cls-14" d="M17.22,59.39s-2.95.19-3.34,3.34c0,0-.45,1.91,1.75,2.37,0,0,2.27-.18,3.34-2.65,0,0,.99-2.74-1.75-3.06Z"/>
  <path class="cls-14" d="M18.28,73.46s-2.95.19-3.34,3.34c0,0-.45,1.91,1.75,2.37,0,0,2.27-.18,3.34-2.65,0,0,.99-2.74-1.75-3.06Z"/>
  <path class="cls-14" d="M34.79,89.87s-2.95.19-3.34,3.34c0,0-.45,1.91,1.75,2.37,0,0,2.27-.18,3.34-2.65,0,0,.99-2.74-1.75-3.06Z"/>
  <path class="cls-14" d="M53.47,101.15s-2.95.19-3.34,3.34c0,0-.45,1.91,1.75,2.37,0,0,2.27-.18,3.34-2.65,0,0,.99-2.74-1.75-3.06Z"/>
  <path class="cls-14" d="M72.32,98.13s-2.95.19-3.34,3.34c0,0-.45,1.91,1.75,2.37,0,0,2.27-.18,3.34-2.65,0,0,.99-2.74-1.75-3.06Z"/>
  <path class="cls-14" d="M95.3,77.82s-2.95.19-3.34,3.34c0,0-.45,1.91,1.75,2.37,0,0,2.27-.18,3.34-2.65,0,0,.99-2.74-1.75-3.06Z"/>
  <path class="cls-14" d="M94.48,61.53s-2.95.19-3.34,3.34c0,0-.45,1.91,1.75,2.37,0,0,2.27-.18,3.34-2.65,0,0,.99-2.74-1.75-3.06Z"/>
  <path class="cls-14" d="M107.16,67.1s-2.95.19-3.34,3.34c0,0-.45,1.91,1.75,2.37,0,0,2.27-.18,3.34-2.65,0,0,.99-2.74-1.75-3.06Z"/>
  <path class="cls-14" d="M111.7,48.8s-2.95.19-3.34,3.34c0,0-.45,1.91,1.75,2.37,0,0,2.27-.18,3.34-2.65,0,0,.99-2.74-1.75-3.06Z"/>
  <path class="cls-14" d="M93.87,43.27s-2.95.19-3.34,3.34c0,0-.45,1.91,1.75,2.37,0,0,2.27-.18,3.34-2.65,0,0,.99-2.74-1.75-3.06Z"/>
  <path class="cls-14" d="M108.39,31.75s-2.95.19-3.34,3.34c0,0-.45,1.91,1.75,2.37,0,0,2.27-.18,3.34-2.65,0,0,.99-2.74-1.75-3.06Z"/>
  <path class="cls-14" d="M84.58,31.97s-2.95.19-3.34,3.34c0,0-.45,1.91,1.75,2.37,0,0,2.27-.18,3.34-2.65,0,0,.99-2.74-1.75-3.06Z"/>
  <path class="cls-14" d="M57.39,40.76s-2.95.19-3.34,3.34c0,0-.45,1.91,1.75,2.37,0,0,2.27-.18,3.34-2.65,0,0,.99-2.74-1.75-3.06Z"/>
  <path class="cls-14" d="M22.38,35.39s-2.95.19-3.34,3.34c0,0-.45,1.91,1.75,2.37,0,0,2.27-.18,3.34-2.65,0,0,.99-2.74-1.75-3.06Z"/>
  <path d="M83.48,64.91c-2.35,2.72-6.49,3.15-9.25.96-2.76-2.19-3.1-6.18-.75-8.9,2.35-2.72,6.49-3.15,9.25-.96s3.1,6.18.75,8.9Z"/>
  <ellipse class="cls-1" cx="73.81" cy="59.55" rx=".69" ry=".66" transform="translate(-14.75 25.63) rotate(-17.94)"/>
  <path d="M48.72,62.51c-2.35,2.72-6.49,3.15-9.25.96s-3.1-6.18-.75-8.9c2.35-2.72,6.49-3.15,9.25-.96s3.1,6.18.75,8.9Z"/>
  <ellipse class="cls-1" cx="76.13" cy="57.85" rx="1.2" ry="1.32" transform="translate(-10.12 99.13) rotate(-62.81)"/>
  <ellipse class="cls-1" cx="40.58" cy="56.72" rx="1.2" ry="1.32" transform="translate(-28.41 66.89) rotate(-62.81)"/>
  <ellipse class="cls-1" cx="38.86" cy="58.71" rx=".69" ry=".66" transform="translate(-16.19 14.82) rotate(-17.94)"/>
  <path class="cls-18" d="M116.93,41.95s-1.59-7.97-4.99-3.97c0,0-.02-5.53-5.13-.52,0,0-6.49-4.78-8.84,2.05,0,0-10.71,1.76-12.93,7.5,0,0-9.33,2.16-4.01,5.16,0,0,10.59,3.56,8.57,9.3,0,0-7.22,3.4-2.32,6.79,0,0-12.1,1.15-7.02,6.47,0,0-3.47,4.09-4.51,7.47-.35,1.13-.42,2.18-.01,2.97,1.65,3.17,3.53,8.09-4.17,8.36,0,0-3.29,13.15,4.07,12.06,0,0,2.18,4.12,5.55,3,0,0,13.12-9.55,9.34-10.79,0,0,12.17-6.77,10.99-10.26,0,0,14.93-16.29,11.16-16.83,0,0,10.86-10.17,4.95-16.04,0,0,5.37-6.92-.03-9.14,0,0,2.72-2.46-.67-3.58Z"/>
  <ellipse class="cls-10" cx="98.61" cy="45.18" rx="1.53" ry="1.29" transform="translate(-3.9 80.63) rotate(-43.69)"/>
  <ellipse class="cls-10" cx="95.34" cy="46.44" rx=".77" ry=".74" transform="translate(-9.67 31.62) rotate(-17.94)"/>
  <ellipse class="cls-10" cx="97.9" cy="47.98" rx=".66" ry="1.5" transform="translate(-.13 95.69) rotate(-52.06)"/>
  <ellipse class="cls-10" cx="85.72" cy="76.4" rx=".93" ry=".89" transform="translate(-19.37 30.12) rotate(-17.94)"/>
  <ellipse class="cls-10" cx="83" cy="77.7" rx=".63" ry=".61" transform="translate(-19.9 29.34) rotate(-17.94)"/>
  <ellipse class="cls-10" cx="83.77" cy="76.34" rx=".25" ry=".33" transform="translate(-27.05 100.09) rotate(-54.44)"/>
  <ellipse class="cls-10" cx="79.37" cy="90.4" rx=".59" ry=".71" transform="translate(-39.82 106.71) rotate(-56.51)"/>
  <ellipse class="cls-10" cx="77.95" cy="91.4" rx=".3" ry=".29" transform="translate(-24.36 28.45) rotate(-17.94)"/>
  <ellipse class="cls-10" cx="79.16" cy="92.34" rx=".48" ry=".58" transform="translate(-41.59 106.91) rotate(-56.28)"/>
  <ellipse class="cls-13" cx="97.22" cy="36.19" rx=".94" ry="1.1" transform="translate(14.68 99.04) rotate(-57.7)"/>
  <ellipse class="cls-13" cx="95.79" cy="38.15" rx=".49" ry=".47" transform="translate(-7.09 31.36) rotate(-17.94)"/>
  <ellipse class="cls-13" cx="83.24" cy="45.14" rx=".33" ry=".31" transform="translate(-9.86 27.83) rotate(-17.94)"/>
  <ellipse class="cls-13" cx="82.44" cy="46.04" rx=".63" ry=".6" transform="translate(-10.17 27.63) rotate(-17.94)"/>
  <ellipse class="cls-13" cx="86.85" cy="59.07" rx=".83" ry=".96" transform="translate(-9.34 101.26) rotate(-57.9)"/>
  <ellipse class="cls-13" cx="87.89" cy="61.14" rx=".35" ry=".33" transform="translate(-14.56 30.04) rotate(-17.94)"/>
  <ellipse class="cls-13" cx="86.94" cy="62.28" rx=".67" ry=".65" transform="translate(-14.96 29.81) rotate(-17.94)"/>
  <ellipse class="cls-13" cx="75.38" cy="88.95" rx=".75" ry=".96" transform="translate(-40.68 100.08) rotate(-55.2)"/>
  <ellipse class="cls-13" cx="74.65" cy="90.95" rx=".56" ry=".76" transform="translate(-42.77 98.57) rotate(-54.33)"/>
  <path class="cls-5" d="M98.7,51.8s-1.45,4.69-3.92,5.14c-2.46.45-3.08-.36-2.18-1.73,0,0-.89-1.41,1.05-2.45,0,0,.62-1.97,1.75-1.78,0,0,1.43-1.02,2.63-.69s1.29.94.67,1.51Z"/>
  <path class="cls-5" d="M91.91,62.17c-1.02,1.65-2.04,2.09-1.42,2.63,0,0-.36,1.87.88,1.42s1.08,2.09,1.82.21c0,0,1.56-.69,1.05-1.69,0,0,.94-.92.18-1.58,0,0-1.57-2.5-2.51-.98Z"/>
  <path class="cls-5" d="M86.06,80.14c-.84,1.77-1.32,3.28-2.38,3.43s-.94.24-.61-.56.44-1.6,1.08-1.58c0,0,.32-1.05,1.03-1.19s1.11-.59.88-.1Z"/>
  <path class="cls-5" d="M73.81,102.68s-2.51-4.48,1.73-5.61c0,0,1.56-3.76,3.83-2.64,0,0,3.61-1.93,3.38,1.5,0,0,1.95,1.88-.25,3.33,0,0-2.41,3.07-4.88,3.31,0,0-3.77,2.62-3.82.1Z"/>
  <path class="cls-4" d="M98.74,84.97c-2.43-9.79,8.7-18.62,8.7-18.62,6.11-2.31,11.34-13.47,1.59-16-9.76-2.52-4.42,7.64-8.38,9.07-3.96,1.42-.58,8.99-5.59,10.82-5.01,1.83-7.38,14.17-7.38,14.17,0,0-2.34,5.15,1.64,6.87,0,0,11.04.18,9.43-6.31Z"/>
  <path class="cls-8" d="M88.64,87.44s6.75,1.8,6.4-.16,3.02-3.36,1.28-5.23c-1.74-1.87,7.83-15.27,8.84-15.9s11.09-8.52,6.36-12.65-7.25-.45-7.25-.45c0,0,1.2,9.61-1.61,7.53,0,0-4.16-.13-3.8,7.85,0,0-4.08,8.47-6.13,7.04s-5.23,11.71-4.09,11.98Z"/>
  <ellipse class="cls-13" cx="107.22" cy="54.37" rx=".8" ry="1.01" transform="translate(1.6 111.78) rotate(-55.42)"/>
  <ellipse class="cls-13" cx="106.38" cy="56.11" rx=".43" ry=".51" transform="translate(2.01 115.88) rotate(-57.61)"/>
  <ellipse class="cls-13" cx="107.87" cy="55.74" rx=".13" ry=".12" transform="translate(-11.92 35.93) rotate(-17.94)"/>
  <circle class="cls-13" cx="107.49" cy="55.65" r=".03" transform="translate(-11.91 35.81) rotate(-17.94)"/>
  <ellipse class="cls-13" cx="93.81" cy="86.08" rx=".22" ry=".21" transform="translate(-21.95 33.08) rotate(-17.94)"/>
  <ellipse class="cls-13" cx="93.28" cy="86.36" rx=".1" ry=".09" transform="translate(-22.06 32.93) rotate(-17.94)"/>
  <path class="cls-8" d="M113.45,51.86c.4.82.96,2.62-.48,2.13s-1.89-1.5-1.48-1.95,1.43-1.29,1.97-.18Z"/>
  <path class="cls-5" d="M118.63,49.64c-.66,5.18-3.88,2.73-3.88,2.73,0,0-1.87-4.63-.48-5.38s2.09-1.71,2.94-.12,1.68.82,1.43,2.77Z"/>
  <path class="cls-5" d="M106.06,73.06s.3-4.51,2.76-4.48,1.86,1.75,1.86,1.75c0,0,.18,2.43-2.22,2.58s-2.61,1.51-2.4.15Z"/>
  <path class="cls-3" d="M92.28,92.54s6.12-1.6,6.7-2.74-2.81,5.2-5.37,5.04c-2.56-.17-1.29-.96-1.32-2.29Z"/>
  <path class="cls-7" d="M100.05,83.84s-.71-8.73,2.01-8.91c0,0,1.35,8.95-2.01,8.91Z"/>
  <path class="cls-6" d="M110.86,65.81s6.58-5.3,5.72-8.3c0,0,2.51.45.87,3-1.65,2.55-4.14,7.7-6.58,5.3Z"/>
  <ellipse class="cls-3" cx="83.22" cy="102.38" rx=".67" ry=".64" transform="translate(-27.49 30.61) rotate(-17.94)"/>
  <ellipse class="cls-3" cx="82.01" cy="103.28" rx=".39" ry=".38" transform="translate(-27.83 30.29) rotate(-17.94)"/>
  <ellipse class="cls-3" cx="83.15" cy="103.24" rx=".34" ry=".32" transform="translate(-27.74 30.61) rotate(-17.93)"/>
  <path class="cls-9" d="M20.29,66.68s-7.15,1.07-5.62,7.73c0,0-9.11,8.72-6.97,11.59,0,0-3.95,5.82,5.45,10.76,0,0,8.99,1.3,7.65-5.99,0,0-3.45-1.77,3.18-7.6,0,0,1.61-4.75.35-5.76,0,0,5.56-8.88-4.03-10.73Z"/>
  <path class="cls-11" d="M19.1,72.18s-2.57.71-1.91,3.87c0,0-5.7,5.56-4.67,7.99,0,0-1.33,6.52,4.16,7.55,0,0,4.18-.92,1.44-6.2,0,0,3.5-6.17,1.94-7.98,0,0,2.55-4.17-.95-5.23Z"/>
  <path class="cls-2" d="M15.71,88.66s2.36,2.44,1.61.04c0,0-.55-2.91-1.19-3.61,0,0,3.08-3.38,2.33-4.91,0,0,.59-2.51-.4-2.98,0,0-1.63.93-1.55,1.8,0,0-1.99,1.64-1.23,2,0,0-3.23,6.24.43,7.65Z"/>
  <ellipse class="cls-13" cx="28.04" cy="69.64" rx=".87" ry=".95" transform="translate(-46.76 63.25) rotate(-63.18)"/>
  <ellipse class="cls-13" cx="27.46" cy="71.25" rx=".35" ry=".34" transform="translate(-20.61 11.92) rotate(-17.94)"/>
  <ellipse class="cls-13" cx="28.79" cy="71.65" rx=".73" ry=".7" transform="translate(-20.67 12.35) rotate(-17.94)"/>
  <ellipse class="cls-13" cx="23.4" cy="85.96" rx=".85" ry=".81" transform="translate(-25.34 11.39) rotate(-17.94)"/>
  <ellipse class="cls-13" cx="22.03" cy="86.58" rx=".36" ry=".34" transform="translate(-25.6 10.99) rotate(-17.94)"/>
  <ellipse class="cls-13" cx="12.6" cy="73.9" rx=".84" ry=".8" transform="translate(-22.15 7.47) rotate(-17.94)"/>
  <ellipse class="cls-13" cx="11.6" cy="75.05" rx=".29" ry=".28" transform="translate(-22.55 7.22) rotate(-17.94)"/>
  <ellipse class="cls-3" cx="21.11" cy="72.06" rx=".8" ry=".76" transform="translate(-21.17 10.01) rotate(-17.94)"/>
  <ellipse class="cls-3" cx="21.74" cy="73.31" rx=".13" ry=".13" transform="translate(-21.52 10.26) rotate(-17.94)"/>
  <ellipse class="cls-3" cx="11.38" cy="90.23" rx=".59" ry=".57" transform="translate(-27.24 7.89) rotate(-17.94)"/>
  <ellipse class="cls-3" cx="11.8" cy="91.55" rx=".19" ry=".19" transform="translate(-27.63 8.08) rotate(-17.94)"/>
  <ellipse class="cls-3" cx="11.33" cy="91.6" rx=".14" ry=".13" transform="translate(-27.66 7.94) rotate(-17.94)"/>
  <circle class="cls-3" cx="18.2" cy="91.44" r=".07" transform="translate(-27.28 10.05) rotate(-17.94)"/>
  <ellipse class="cls-3" cx="18.6" cy="91.3" rx=".14" ry=".13" transform="translate(-27.22 10.17) rotate(-17.94)"/>
  <ellipse class="cls-3" cx="21.16" cy="73.25" rx=".12" ry=".11" transform="translate(-21.53 10.08) rotate(-17.94)"/>
  <g>
    <path class="cls-17" d="M72.94,82.27s6.06-1.73-.26-8.83c-.52-.58-1.12-1.2-1.81-1.85,0,0-13.34-11.56-25.38-3.52,0,0-4.79,2.65-.44,7.27,0,0,18.22-7.34,27.89,6.93Z"/>
    <path class="cls-15" d="M70.02,70.74s-13.42,1.4-20.75-4.68c-7.33-6.08,0,0,0,0,0,0,8.28-4.37,20.75,4.68,12.47,9.04,0,0,0,0"/>
  </g>
</svg>