<?xml version="1.0" encoding="UTF-8"?>
<svg id="Layer_5" data-name="Layer 5" xmlns="http://www.w3.org/2000/svg" viewBox="0 0 121 129.75">
  <defs>
    <style>
      .cls-1 {
        fill: #559f2c;
        stroke-width: .5px;
      }

      .cls-1, .cls-2, .cls-3 {
        stroke-miterlimit: 10;
      }

      .cls-1, .cls-3 {
        stroke: #b22e1d;
      }

      .cls-2 {
        fill: #fff68c;
        stroke: #ed1b2f;
        stroke-width: .75px;
      }

      .cls-4 {
        fill: #321818;
      }

      .cls-5 {
        fill: #924f4b;
      }

      .cls-6 {
        fill: #faf9f7;
      }

      .cls-7 {
        fill: #491b20;
      }

      .cls-3 {
        fill: #ff5843;
      }

      .cls-8 {
        fill: #ffa5b6;
      }
    </style>
  </defs>
  <path class="cls-3" d="M91.8,19.71l3.01.75c3.78.93,4.91,1.91,4.91,1.91,1.52.04,6.66,4.25,6.66,4.25,1.96.75,6.8,7.55,6.8,7.55,2.36,2.87,5,10.51,5,10.51,1.19,1.47,2,9.77,2,9.77.77,3-.06,9.11-.06,9.11.39,1.05-1.54,8.41-1.54,8.41-1.4,5.91-2.74,7.76-2.74,7.76l-3.79,7.68-4.42,6.99-5.82,8.18-6.24,7.72-7.68,7.51c-4.14,4.07-9.16,6.89-9.16,6.89-5.4,3.76-9.16,3.99-9.16,3.99-4.1,1.58-10.95-.74-10.95-.74l-8.59-3.68-9.78-6.14-8.69-6.64-6.11-5.45-6.49-6.42-6.95-8.12-3.61-5-2.75-4.9-2.31-5.27c-2.31-5.27-1.9-9.69-2.65-12.53-.75-2.83.97-13.32.97-13.32,0,0,.15-4.24,5.27-12.86s15.54-12.22,15.54-12.22l.92-.19"/>
  <path class="cls-1" d="M53.66,17.87s-19.91,5.98-23.5,6.51c-3.58.52-8.65-.35-9.51.31,0,0,.63,1.88,2.9,2.75l3.01.94,6.43.79,2.65.14-2.79,2.85s-2.39,3.14-2.57,3.78c0,0-.89,1.73-1.03,3.02-.14,1.3.58,2.95.58,2.95l3.9-2.69,3.49-2.35,3.86-2.18,3.12-1.38s3.88-1.46,4.3-1.32c0,0,.72,2.1,1.4,2.8,0,0,1.47,1.72,1.95,2.05s1.92,1.32,1.92,1.32l2,1.12,3.4,1.52,2.5,1.08s.12-1.24-.4-2.02c0,0-.06.03-.48-1.93,0,0-.36-2.15-.06-2.44,0,0,.92-3.07,1.29-3.31l2.31-3.9,3.6.13,5.85.71,5.73,1.34,2.09.79,3.04,1.42,3.38,2.14,2.67,1.94s.41.34.23-1.32-1.63-3.75-1.63-3.75c0,0-1.76-1.95-2.94-2.82,0,0-1.43-1.43-2.39-2.05,0,0-1.73-1.83-3.12-2.24,0,0-.88-.46-2.05-1.27l-.91-.68,6.03-.33,4.86.39,5.53,1.05s1.74.33,2.15.2-.74-1.21-.74-1.21l-1.88-1.55s-2.44-1.43-4.22-1.91c0,0-2.95-1.19-6.42-1.78,0,0-4.45-.92-8.72-1.17-4.27-.25-8.67.51-8.67.51l-4.75,1.23-.68-5.61s-3.45-11.04-4.96-11.31c-1.5-.28-2.22-1.62-9.31-.35-7.1,1.27-1.24,5.11-1.24,5.11,0,0,3.51,1.88,4.07,2.77,0,0,3.91,4.86,3.82,5.68l.9,3.53h0Z"/>
  <path class="cls-2" d="M77.83,48.42s-2.97.42-2.69,3.82c0,0-.04,2.08,2.3,2.4,0,0,2.28-.36,2.84-3.08,0,0,.42-3-2.44-3.14h0Z"/>
  <path class="cls-2" d="M30.55,55.45s-2.97.42-2.69,3.82c0,0-.04,2.08,2.3,2.4,0,0,2.28-.36,2.84-3.08,0,0,.42-3-2.44-3.14h0Z"/>
  <path class="cls-2" d="M80.65,77.15s-2.97.42-2.69,3.82c0,0-.04,2.08,2.3,2.4,0,0,2.28-.36,2.84-3.08,0,0,.42-3-2.44-3.14h0Z"/>
  <path class="cls-2" d="M54.64,86.95s-2.97.42-2.69,3.82c0,0-.04,2.08,2.3,2.4,0,0,2.28-.36,2.84-3.08,0,0,.42-3-2.44-3.14h0Z"/>
  <path class="cls-2" d="M37.97,71.59s-2.97.42-2.69,3.82c0,0-.04,2.08,2.3,2.4,0,0,2.28-.36,2.84-3.08,0,0,.42-3-2.44-3.14h0Z"/>
  <path class="cls-2" d="M63.93,63.24s-2.97.42-2.69,3.82c0,0-.04,2.08,2.3,2.4,0,0,2.28-.36,2.84-3.08,0,0,.42-3-2.44-3.14h0Z"/>
  <path class="cls-2" d="M18.74,67s-2.97.42-2.69,3.82c0,0-.04,2.08,2.3,2.4,0,0,2.28-.36,2.84-3.08,0,0,.42-3-2.44-3.14h0Z"/>
  <path class="cls-2" d="M22.85,81.95s-2.97.42-2.69,3.82c0,0-.04,2.08,2.3,2.4,0,0,2.28-.36,2.84-3.08,0,0,.42-3-2.44-3.14h0Z"/>
  <path class="cls-2" d="M43.22,98.26s-2.97.42-2.69,3.82c0,0-.04,2.08,2.3,2.4,0,0,2.28-.36,2.84-3.08,0,0,.42-3-2.44-3.14h0Z"/>
  <path class="cls-2" d="M64.73,108.92s-2.97.42-2.69,3.82c0,0-.04,2.08,2.3,2.4,0,0,2.28-.36,2.84-3.08,0,0,.42-3-2.44-3.14h0Z"/>
  <path class="cls-2" d="M83.31,104.28s-2.97.42-2.69,3.82c0,0-.04,2.08,2.3,2.4,0,0,2.28-.36,2.84-3.08,0,0,.42-3-2.44-3.14h0Z"/>
  <path class="cls-2" d="M102.14,78.45s-2.97.42-2.69,3.82c0,0-.04,2.08,2.3,2.4,0,0,2.28-.36,2.84-3.08,0,0,.42-3-2.44-3.14h0Z"/>
  <path class="cls-2" d="M98.03,63.5s-2.97.42-2.69,3.82c0,0-.04,2.08,2.3,2.4,0,0,2.28-.36,2.84-3.08,0,0,.42-3-2.44-3.14h0Z"/>
  <path class="cls-2" d="M112.18,68.51s-2.97.42-2.69,3.82c0,0-.04,2.08,2.3,2.4,0,0,2.28-.36,2.84-3.08,0,0,.42-3-2.44-3.14h0Z"/>
  <path class="cls-2" d="M112.87,48.61s-2.97.42-2.69,3.82c0,0-.04,2.08,2.3,2.4,0,0,2.28-.36,2.84-3.08,0,0,.42-3-2.44-3.14h0Z"/>
  <path class="cls-2" d="M93.48,44.02s-2.97.42-2.69,3.82c0,0-.04,2.08,2.3,2.4,0,0,2.28-.36,2.84-3.08,0,0,.42-3-2.44-3.14h0Z"/>
  <path class="cls-2" d="M105.82,30.62s-2.97.42-2.69,3.82c0,0-.04,2.08,2.3,2.4,0,0,2.28-.36,2.84-3.08,0,0,.42-3-2.44-3.14h0Z"/>
  <path class="cls-2" d="M81.57,32.64s-2.97.42-2.69,3.82c0,0-.04,2.08,2.3,2.4,0,0,2.28-.36,2.84-3.08,0,0,.42-3-2.44-3.14h0Z"/>
  <path class="cls-2" d="M55.72,44.07s-2.97.42-2.69,3.82c0,0-.04,2.08,2.3,2.4,0,0,2.28-.36,2.84-3.08,0,0,.42-3-2.44-3.14h0Z"/>
  <path class="cls-2" d="M18.83,40.95s-2.97.42-2.69,3.82c0,0-.04,2.08,2.3,2.4,0,0,2.28-.36,2.84-3.08,0,0,.42-3-2.44-3.14h0Z"/>
  <path class="cls-4" d="M87.79,55.11c.79,3.13-1.69,6.25-5.54,6.96-3.84.72-7.61-1.25-8.4-4.37-.79-3.13,1.69-6.25,5.54-6.96,3.84-.72,7.61,1.25,8.4,4.37Z"/>
  <path class="cls-4" d="M43.79,58.78c.79,3.13-1.69,6.25-5.54,6.96-3.84.72-7.61-1.25-8.4-4.37-.79-3.13,1.69-6.25,5.54-6.96s7.61,1.25,8.4,4.37Z"/>
  <ellipse class="cls-6" cx="33.19" cy="58.56" rx="1.55" ry="1.29"/>
  <ellipse class="cls-6" cx="77.05" cy="55.11" rx="1.55" ry="1.29"/>
  <path class="cls-6" d="M32.48,61.63c-.39-.14-.57-.52-.41-.85s.62-.48,1.01-.34.57.52.41.85-.62.48-1.01.34Z"/>
  <path class="cls-6" d="M75.73,58.2c-.39-.14-.57-.52-.41-.85s.62-.48,1.01-.34.57.52.41.85-.62.48-1.01.34Z"/>
  <g>
    <path class="cls-7" d="M45.88,63.75s-5.21,2.9,2.65,7.85c.64.41,1.38.83,2.2,1.26,0,0,15.68,7.39,24.78-2.5,0,0,3.76-3.44-1.57-6.61,0,0-15.08,10.64-28.06,0Z"/>
    <path class="cls-5" d="M51.78,73.43s12.21-4.24,20.75-.43c8.54,3.81,0,0,0,0,0,0-6.58,5.76-20.75.43-14.17-5.33,0,0,0,0"/>
  </g>
  <ellipse class="cls-8" cx="32.14" cy="71.62" rx="9.41" ry="3.54"/>
  <ellipse class="cls-8" cx="89.47" cy="68.68" rx="9.41" ry="3.54"/>
  <path class="cls-2" d="M48.3,108.92s-2.97.42-2.69,3.82c0,0-.04,2.08,2.3,2.4,0,0,2.28-.36,2.84-3.08,0,0,.42-3-2.44-3.14h0Z"/>
  <path class="cls-2" d="M37.97,83.83s-2.97.42-2.69,3.82c0,0-.04,2.08,2.3,2.4,0,0,2.28-.36,2.84-3.08,0,0,.42-3-2.44-3.14h0Z"/>
  <path class="cls-2" d="M92.18,88.18s-2.97.42-2.69,3.82c0,0-.04,2.08,2.3,2.4,0,0,2.28-.36,2.84-3.08,0,0,.42-3-2.44-3.14h0Z"/>
  <path class="cls-2" d="M69.11,118.95s-2.97.42-2.69,3.82c0,0-.04,2.08,2.3,2.4,0,0,2.28-.36,2.84-3.08,0,0,.42-3-2.44-3.14h0Z"/>
</svg>