<?xml version="1.0" encoding="UTF-8"?>
<svg id="Layer_5" data-name="Layer 5" xmlns="http://www.w3.org/2000/svg" viewBox="0 0 71.61 59.55">
  <defs>
    <style>
      .cls-1 {
        fill: #f37080;
      }

      .cls-2 {
        fill: #fff;
      }

      .cls-3 {
        fill: none;
        stroke: #000;
        stroke-miterlimit: 10;
      }

      .cls-4 {
        fill: #ef5a70;
      }
    </style>
  </defs>
  <path class="cls-1" d="M36.23,6.11S41.49.87,49.05.1c1.22-.13,2.51-.13,3.84.01,3.99.45,8.42,2.31,12.94,6.69,0,0,13.01,11.97,0,29.64,0,0-.86,1.04-2.39,2.69-4.61,4.96-15.31,15.51-27.2,20.41,0,0-43.48-23.02-35.18-43.74,0,0,7.74-27.15,35.18-9.7Z"/>
  <circle cx="49.05" cy="26.55" r="3.73"/>
  <circle cx="21.96" cy="26.55" r="3.73"/>
  <path class="cls-3" d="M29.91,34.72s4.76,5.04,9.52,0"/>
  <path class="cls-2" d="M9.16,10.54s-6.51,4.62-3.61,15.98c0,0,1.16.83,2.84-7.21,0,0,2.64-8.96.77-8.78Z"/>
  <circle class="cls-2" cx="11.03" cy="7.4" r="1.79"/>
  <ellipse class="cls-4" cx="20.95" cy="33.24" rx="2.73" ry="1.48"/>
  <ellipse class="cls-4" cx="51.78" cy="33.24" rx="2.73" ry="1.48"/>
  <ellipse class="cls-2" cx="20.89" cy="24.94" rx=".87" ry=".7"/>
  <circle class="cls-2" cx="19.66" cy="26" r=".36"/>
  <ellipse class="cls-2" cx="47.5" cy="24.94" rx=".87" ry=".7"/>
  <circle class="cls-2" cx="46.48" cy="26.11" r=".29"/>
</svg>